<svg
  xmlns="http://www.w3.org/2000/svg"
  viewBox="0 0 100 100"
  height="2em"
>
  <clipPath id="circle">
    <circle r="50" cx="50" cy="50" />
  </clipPath>
  <g clip-path="url(#circle)">
    <path style="fill: #f0f6fc" d="M0 0 H100 V100 H0z" />
    <path
      style="fill: #161b22"
      d="M 0 100 V 84.8 L 0.23 84.71 C 0.74 84.51 1.88 84.2 2.08 84.2 C 2.19 84.2 2.55 84.13 2.87 84.05 C 3.2 83.96 3.88 83.9 4.49 83.9 H 5.53 L 6.64 83.36 C 7.25 83.06 8.4 82.58 9.2 82.3 C 10.44 81.85 10.85 81.65 12.02 80.88 C 12.94 80.28 13.69 79.87 14.31 79.64 C 14.81 79.45 15.37 79.21 15.56 79.1 C 15.75 78.97 16.21 78.42 16.68 77.72 C 18.51 75.03 19.55 74.4 22.75 74.05 C 24.04 73.9 24.54 73.8 25.3 73.52 C 26.04 73.25 26.42 73.17 27 73.16 C 27.7 73.15 27.85 73.19 29.15 73.72 C 29.92 74.03 31 74.49 31.54 74.75 C 32.17 75.04 32.62 75.19 32.75 75.16 C 33.06 75.08 34.4 73.7 34.77 73.07 C 35.21 72.36 35.36 71.69 35.5 69.9 C 35.67 67.81 35.63 67.58 34.87 65.88 C 33.53 62.91 33.13 61.37 32.65 57.33 C 32.51 56.16 32.36 55.1 32.31 54.97 C 32.17 54.61 31.98 54.51 31.24 54.41 C 30.62 54.32 30.51 54.27 30.18 53.91 C 29.68 53.38 29.58 52.96 29.13 49.65 C 28.79 47.13 28.75 46.64 28.75 44.7 C 28.75 42.77 28.78 42.46 28.98 41.71 C 29.29 40.6 29.51 40.17 30.2 39.45 C 30.52 39.12 30.83 38.74 30.9 38.61 C 30.97 38.47 31.04 37.89 31.06 37.31 C 31.28 31.44 31.37 30.36 31.74 29.23 C 31.9 28.72 32.34 26.43 32.45 25.5 C 32.54 24.81 32.74 24.33 33.33 23.47 C 33.81 22.77 33.91 22.49 34.09 21.39 C 34.26 20.36 34.24 19.99 34 19.93 C 33.89 19.9 33.8 19.84 33.8 19.79 C 33.8 19.74 34.44 19.04 35.23 18.22 C 37.07 16.34 38.51 14.63 39.04 13.73 C 39.08 13.65 38.95 13.51 38.7 13.34 L 38.29 13.07 L 38.97 12.75 C 40.4 12.08 43.12 10.15 44.57 8.78 C 45.61 7.79 45.65 7.77 47 7.35 C 47.86 7.08 49.34 6.4 50.45 5.75 C 50.87 5.51 51.36 5.34 52.03 5.21 C 53.46 4.92 54.38 4.61 54.6 4.33 C 54.7 4.2 54.81 3.87 54.85 3.6 C 54.96 2.83 55.1 3.12 55.03 3.95 C 54.97 4.68 54.97 4.69 55.23 4.75 C 55.37 4.79 55.51 4.88 55.54 4.95 C 55.57 5.03 55.74 5.11 55.92 5.14 C 56.1 5.16 56.73 5.26 57.32 5.36 C 58.47 5.54 58.99 5.51 59.85 5.2 C 60.36 5.02 61.6 4.86 61.6 4.99 C 61.6 5.02 61.48 5.23 61.34 5.44 C 60.71 6.36 60.98 7.09 62.12 7.51 C 63.47 8 67.17 9.63 67.46 9.85 C 67.64 9.99 68.29 10.61 68.92 11.23 C 69.99 12.31 71.13 13.19 72.04 13.66 C 72.26 13.78 72.86 14.26 73.37 14.72 C 74.23 15.52 74.8 15.9 75.12 15.9 C 75.3 15.9 75.63 16.25 75.84 16.67 C 75.92 16.84 76.22 17.26 76.49 17.59 C 76.84 18.04 77 18.33 77.04 18.65 C 77.13 19.22 77.73 21 77.95 21.33 C 78.08 21.53 78.15 22.06 78.26 23.67 C 78.35 25.09 78.47 26 78.6 26.5 C 78.72 26.91 78.9 27.75 79 28.35 C 79.27 29.85 79.54 30.71 79.85 31 L 80.1 31.24 L 79.86 31.49 C 79.55 31.81 79.36 32.28 79.2 33.05 C 79.14 33.38 78.99 33.91 78.88 34.23 C 78.65 34.86 78.68 35.47 78.96 36.01 C 79.16 36.4 79.1 36.46 78.71 36.26 C 78.55 36.17 78.36 36.1 78.31 36.1 C 78.24 36.1 78.2 36.61 78.2 37.55 C 78.2 38.35 78.11 39.87 77.99 40.93 L 77.78 42.85 L 77.28 43.82 C 76.96 44.45 76.78 44.91 76.78 45.14 C 76.78 45.34 76.94 45.88 77.14 46.34 C 77.65 47.53 77.78 48.48 77.58 49.65 C 77.37 50.83 77.16 51.37 76.22 53.05 C 74.76 55.68 72.92 58.48 72.06 59.39 C 71.54 59.94 71.16 60.1 70.42 60.1 C 69.94 60.1 69.69 60.03 69.14 59.75 C 68.76 59.56 68.35 59.4 68.23 59.4 C 67.92 59.4 67.7 59.73 67.1 61.07 C 65.74 64.14 65.13 65.23 63.45 67.6 C 62.89 68.4 62.38 69.14 62.32 69.25 C 62.23 69.43 60.49 76.77 60.21 78.18 C 59.94 79.51 60.14 79.98 61.23 80.49 C 62.06 80.87 62.48 80.96 64.73 81.26 C 65.79 81.39 66.93 81.6 67.27 81.71 C 68.39 82.08 70.1 83.51 70.62 84.5 C 70.93 85.1 71 86.85 70.76 87.94 C 70.45 89.31 69.98 90.02 68.78 90.93 C 68.36 91.25 68.07 91.8 68.17 92.07 C 68.28 92.37 68.59 92.73 68.92 92.93 C 69.09 93.03 70.18 93.45 71.33 93.86 C 74.68 95.05 75.78 95.61 77.5 96.99 C 78.58 97.86 80.11 99.3 80.41 99.72 L 80.61 100 Z"
    />
  </g>
</svg>
